<?xml version="1.0" encoding="iso-8859-1"?>
<!-- Generator: Adobe Illustrator 16.0.0, SVG Export Plug-In . SVG Version: 6.00 Build 0)  -->
<!DOCTYPE svg PUBLIC "-//W3C//DTD SVG 1.1//EN" "http://www.w3.org/Graphics/SVG/1.1/DTD/svg11.dtd">
<svg version="1.1" id="Capa_1" xmlns="http://www.w3.org/2000/svg" xmlns:xlink="http://www.w3.org/1999/xlink" x="0px" y="0px"
	 width="612px" height="612px" viewBox="0 0 612 612" style="enable-background:new 0 0 612 612;" xml:space="preserve">
<g>
	<g id="Wind_x5F_Cone">
		<g>
			<path d="M564.952,146.096L225.006,59.23v0.019c-4.781-1.262-9.697-1.874-14.631-1.874c-56.113,0-88.224,73.019-94.439,153H76.5
				V85.833c11.551-8.721,19.125-22.434,19.125-38.021C95.625,21.401,74.224,0,47.812,0S0,21.401,0,47.812
				c0,15.587,7.574,29.299,19.125,38.021v497.479c0,15.836,12.833,28.688,28.688,28.688S76.5,599.148,76.5,583.312V267.75h39.436
				c6.216,79.98,38.327,153,94.439,153c4.953,0,9.888-0.612,14.611-1.855l0,0l339.947-86.865
				c34.73-8.855,47.066-55.635,47.066-92.967S599.664,154.951,564.952,146.096z M210.738,363.337
				c-8.625,1.186-31.805-31.748-37.389-95.587h73.899C241.95,325.067,221.869,360.487,210.738,363.337z M173.349,210.375
				c5.565-62.826,28.419-95.567,37.428-95.567h0.019c11.092,2.83,31.154,38.25,36.452,95.567H173.349z M380.014,320.057
				l-89.792,22.95C300.875,311.719,306,274.692,306,239.062s-5.125-72.656-15.778-103.944l89.792,22.95
				c6.445,3.806,21.611,32.149,21.611,80.994S386.459,316.251,380.014,320.057z M546.898,277.427l-95.587,24.422
				c5.164-19.89,7.688-41.654,7.688-62.787c0-21.114-2.524-42.897-7.688-62.787l95.587,24.422
				c3.003,4.858,7.727,18.169,7.727,38.365S549.901,272.569,546.898,277.427z"/>
		</g>
	</g>
</g>
<g>
</g>
<g>
</g>
<g>
</g>
<g>
</g>
<g>
</g>
<g>
</g>
<g>
</g>
<g>
</g>
<g>
</g>
<g>
</g>
<g>
</g>
<g>
</g>
<g>
</g>
<g>
</g>
<g>
</g>
</svg>
